<?xml version="1.0" encoding="UTF-8" standalone="no"?>
<!DOCTYPE svg PUBLIC "-//W3C//DTD SVG 1.1//EN" "http://www.w3.org/Graphics/SVG/1.1/DTD/svg11.dtd">
<svg width="100%" height="100%" viewBox="55 43 145 177" version="1.1" xmlns="http://www.w3.org/2000/svg" xmlns:xlink="http://www.w3.org/1999/xlink" xml:space="preserve" xmlns:serif="http://www.serif.com/" style="fill-rule:evenodd;clip-rule:evenodd;stroke-linejoin:round;stroke-miterlimit:1.41421;">
    <g transform="matrix(2.66667,0,0,0.450065,-213.333,114.343)">
        <path d="M150.5,179.719L105.5,179.719C105.5,179.719 105.5,215.203 105.5,229.235C105.5,232.335 105.924,234.848 106.447,234.848C112.319,234.848 143.681,234.848 149.553,234.848C150.076,234.848 150.5,232.335 150.5,229.235C150.5,215.203 150.5,179.719 150.5,179.719Z" style="fill:url(#_Linear1);"/>
    </g>
    <g transform="matrix(0.945167,0,0,0.956895,6.84324,4.08687)">
        <path d="M204.892,48.219C204.892,43.891 201.339,40.382 196.957,40.382C170.551,40.382 85.82,40.382 59.414,40.382C55.032,40.382 51.48,43.891 51.48,48.219C51.48,76.941 51.48,176.256 51.48,204.978C51.48,209.306 55.032,212.815 59.414,212.815C85.82,212.815 170.551,212.815 196.957,212.815C201.339,212.815 204.892,209.306 204.892,204.978C204.892,176.256 204.892,76.941 204.892,48.219Z" style="fill:rgb(228,228,228);"/>
    </g>
    <g transform="matrix(0.988958,0,0,0.971833,2.19637,2.57441)">
        <path d="M197.99,49.035C197.99,47.671 197.457,46.362 196.509,45.397C195.561,44.432 194.275,43.89 192.934,43.89C170.915,43.89 83.502,43.89 61.483,43.89C60.142,43.89 58.856,44.432 57.908,45.397C56.959,46.362 56.427,47.671 56.427,49.035C56.427,73.604 56.427,178.813 56.427,203.383C56.427,204.747 56.959,206.056 57.908,207.021C58.856,207.986 60.142,208.528 61.483,208.528C83.502,208.528 170.915,208.528 192.934,208.528C194.275,208.528 195.561,207.986 196.509,207.021C197.457,206.056 197.99,204.747 197.99,203.383C197.99,178.813 197.99,73.604 197.99,49.035Z" style="fill:rgb(64,64,64);"/>
        <clipPath id="_clip2">
            <path d="M197.99,49.035C197.99,47.671 197.457,46.362 196.509,45.397C195.561,44.432 194.275,43.89 192.934,43.89C170.915,43.89 83.502,43.89 61.483,43.89C60.142,43.89 58.856,44.432 57.908,45.397C56.959,46.362 56.427,47.671 56.427,49.035C56.427,73.604 56.427,178.813 56.427,203.383C56.427,204.747 56.959,206.056 57.908,207.021C58.856,207.986 60.142,208.528 61.483,208.528C83.502,208.528 170.915,208.528 192.934,208.528C194.275,208.528 195.561,207.986 196.509,207.021C197.457,206.056 197.99,204.747 197.99,203.383C197.99,178.813 197.99,73.604 197.99,49.035Z"/>
        </clipPath>
        <g clip-path="url(#_clip2)">
            <g transform="matrix(2.2909,0,0,2.44535,-198.335,-232.194)">
                <rect x="111.206" y="112.902" width="61.794" height="67.327" style="fill:url(#_Radial3);"/>
            </g>
        </g>
    </g>
    <g transform="matrix(0.988958,0,0,0.971833,2.19637,2.57441)">
        <path d="M192.997,43.891L193.06,43.892L193.122,43.894L193.185,43.897L193.247,43.9L193.31,43.904L193.372,43.91L193.434,43.915L193.496,43.922L193.558,43.929L193.619,43.938L193.681,43.947L193.742,43.956L193.803,43.967L193.864,43.978L193.925,43.99L193.986,44.003L194.046,44.016L194.166,44.045L194.286,44.078L194.404,44.113L194.522,44.151L194.639,44.191L194.754,44.235L194.869,44.282L194.982,44.331L195.094,44.384L195.205,44.439L195.315,44.496L195.423,44.557L195.53,44.62L195.635,44.686L195.687,44.72L195.739,44.755L195.79,44.79L195.841,44.826L195.892,44.863L195.942,44.9L195.992,44.938L196.041,44.976L196.09,45.015L196.138,45.055L196.186,45.096L196.234,45.137L196.281,45.179L196.327,45.221L196.374,45.264L196.419,45.308L196.464,45.352L196.509,45.397L196.553,45.443L196.597,45.489L196.64,45.535L196.682,45.582L196.724,45.629L196.765,45.677L196.805,45.726L196.845,45.775L196.884,45.824L196.923,45.873L196.961,45.924L196.998,45.974L197.034,46.025L197.07,46.077L197.106,46.128L197.14,46.181L197.174,46.233L197.208,46.286L197.273,46.394L197.335,46.502L197.394,46.612L197.451,46.724L197.505,46.837L197.556,46.951L197.605,47.066L197.651,47.183L197.694,47.3L197.734,47.419L197.771,47.539L197.806,47.659L197.837,47.781L197.866,47.903L197.879,47.965L197.892,48.027L197.904,48.089L197.915,48.151L197.925,48.213L197.934,48.275L197.943,48.338L197.951,48.401L197.959,48.464L197.965,48.527L197.971,48.59L197.976,48.653L197.98,48.716L197.984,48.78L197.986,48.844L197.988,48.907L197.99,48.971L197.99,49.035L197.99,203.383L197.99,203.447L197.988,203.51L197.986,203.574L197.984,203.638L197.98,203.701L197.976,203.765L197.971,203.828L197.965,203.891L197.959,203.954L197.951,204.017L197.943,204.08L197.934,204.142L197.925,204.205L197.915,204.267L197.904,204.329L197.892,204.391L197.879,204.453L197.866,204.514L197.837,204.637L197.806,204.758L197.771,204.879L197.734,204.999L197.694,205.117L197.651,205.235L197.605,205.352L197.556,205.467L197.505,205.581L197.451,205.694L197.394,205.805L197.335,205.915L197.273,206.024L197.208,206.131L197.175,206.184L197.14,206.237L197.106,206.289L197.07,206.341L197.034,206.393L196.998,206.444L196.961,206.494L196.923,206.544L196.884,206.594L196.845,206.643L196.805,206.692L196.765,206.74L196.724,206.788L196.682,206.836L196.64,206.883L196.597,206.929L196.553,206.975L196.509,207.021L196.464,207.066L196.419,207.11L196.374,207.154L196.327,207.197L196.281,207.239L196.234,207.281L196.186,207.322L196.138,207.362L196.09,207.402L196.041,207.442L195.992,207.48L195.942,207.518L195.892,207.555L195.841,207.592L195.79,207.628L195.739,207.663L195.687,207.698L195.635,207.732L195.53,207.798L195.423,207.861L195.315,207.921L195.205,207.979L195.094,208.034L194.982,208.087L194.869,208.136L194.754,208.183L194.639,208.226L194.522,208.267L194.404,208.305L194.286,208.34L194.166,208.372L194.046,208.402L193.986,208.415L193.925,208.428L193.864,208.44L193.803,208.451L193.742,208.461L193.681,208.471L193.619,208.48L193.558,208.488L193.496,208.496L193.434,208.502L193.372,208.508L193.31,208.513L193.247,208.518L193.185,208.521L193.122,208.524L193.06,208.526L192.997,208.527L192.934,208.528L61.483,208.528L61.42,208.527L61.357,208.526L61.294,208.524L61.232,208.521L61.169,208.518L61.107,208.513L61.045,208.508L60.983,208.502L60.921,208.496L60.859,208.488L60.797,208.48L60.736,208.471L60.675,208.461L60.613,208.451L60.552,208.44L60.492,208.428L60.431,208.415L60.37,208.402L60.25,208.372L60.131,208.34L60.012,208.305L59.894,208.267L59.778,208.226L59.662,208.183L59.548,208.136L59.434,208.087L59.322,208.034L59.211,207.979L59.102,207.921L58.994,207.861L58.887,207.798L58.781,207.732L58.729,207.698L58.678,207.663L58.626,207.628L58.575,207.592L58.525,207.555L58.475,207.518L58.425,207.48L58.376,207.442L58.327,207.402L58.278,207.362L58.23,207.322L58.183,207.281L58.136,207.239L58.089,207.197L58.043,207.154L57.997,207.11L57.952,207.066L57.908,207.021L57.863,206.975L57.82,206.929L57.777,206.883L57.735,206.836L57.693,206.788L57.652,206.74L57.611,206.692L57.572,206.643L57.532,206.594L57.494,206.544L57.456,206.494L57.419,206.444L57.382,206.393L57.346,206.341L57.311,206.289L57.276,206.237L57.242,206.184L57.209,206.131L57.144,206.024L57.082,205.915L57.022,205.805L56.966,205.694L56.911,205.581L56.86,205.467L56.812,205.352L56.766,205.235L56.723,205.117L56.683,204.999L56.645,204.879L56.611,204.758L56.579,204.637L56.551,204.514L56.537,204.453L56.525,204.391L56.513,204.329L56.502,204.267L56.492,204.205L56.482,204.142L56.473,204.08L56.465,204.017L56.458,203.954L56.451,203.891L56.446,203.828L56.441,203.765L56.436,203.701L56.433,203.638L56.43,203.574L56.428,203.51L56.427,203.447L56.427,203.383L56.427,49.035L56.427,48.971L56.428,48.907L56.43,48.844L56.433,48.78L56.436,48.716L56.441,48.653L56.446,48.59L56.451,48.527L56.458,48.464L56.465,48.401L56.473,48.338L56.482,48.275L56.492,48.213L56.502,48.151L56.513,48.089L56.525,48.027L56.537,47.965L56.551,47.903L56.579,47.781L56.611,47.659L56.645,47.539L56.683,47.419L56.723,47.3L56.766,47.183L56.812,47.066L56.86,46.951L56.911,46.837L56.966,46.724L57.022,46.612L57.082,46.502L57.144,46.394L57.209,46.286L57.242,46.233L57.276,46.181L57.311,46.128L57.346,46.077L57.382,46.025L57.419,45.974L57.456,45.924L57.494,45.873L57.532,45.824L57.572,45.775L57.611,45.726L57.652,45.677L57.693,45.629L57.735,45.582L57.777,45.535L57.82,45.489L57.863,45.443L57.908,45.397L57.952,45.352L57.997,45.308L58.043,45.264L58.089,45.221L58.136,45.179L58.183,45.137L58.23,45.096L58.278,45.055L58.327,45.015L58.376,44.976L58.425,44.938L58.475,44.9L58.525,44.863L58.575,44.826L58.626,44.79L58.678,44.755L58.729,44.72L58.781,44.686L58.887,44.62L58.994,44.557L59.102,44.496L59.211,44.439L59.322,44.384L59.434,44.331L59.548,44.282L59.662,44.235L59.778,44.191L59.894,44.151L60.012,44.113L60.131,44.078L60.25,44.045L60.37,44.016L60.431,44.003L60.492,43.99L60.552,43.978L60.613,43.967L60.675,43.956L60.736,43.947L60.797,43.938L60.859,43.929L60.921,43.922L60.983,43.915L61.045,43.91L61.107,43.904L61.169,43.9L61.232,43.897L61.294,43.894L61.357,43.892L61.42,43.891L61.483,43.89L192.934,43.89L192.997,43.891ZM61.484,44.405L61.426,44.405L61.37,44.406L61.313,44.408L61.257,44.41L61.201,44.414L61.145,44.417L61.089,44.422L61.033,44.427L60.977,44.433L60.921,44.44L60.866,44.447L60.811,44.455L60.755,44.464L60.7,44.474L60.645,44.484L60.591,44.495L60.536,44.506L60.483,44.518L60.373,44.544L60.266,44.573L60.159,44.605L60.053,44.639L59.948,44.676L59.844,44.715L59.741,44.757L59.639,44.802L59.538,44.849L59.438,44.898L59.34,44.95L59.242,45.005L59.146,45.062L59.05,45.122L59.005,45.152L58.958,45.183L58.912,45.214L58.866,45.247L58.821,45.28L58.775,45.313L58.731,45.347L58.686,45.382L58.642,45.417L58.599,45.453L58.556,45.49L58.513,45.527L58.47,45.564L58.429,45.603L58.387,45.641L58.346,45.681L58.305,45.721L58.265,45.761L58.225,45.802L58.186,45.843L58.147,45.885L58.109,45.927L58.072,45.97L58.035,46.013L57.999,46.057L57.963,46.101L57.927,46.145L57.893,46.19L57.859,46.235L57.825,46.28L57.792,46.326L57.76,46.373L57.728,46.419L57.697,46.466L57.666,46.514L57.637,46.56L57.578,46.658L57.522,46.756L57.468,46.855L57.417,46.955L57.369,47.057L57.322,47.159L57.279,47.263L57.237,47.368L57.199,47.474L57.163,47.581L57.129,47.688L57.098,47.797L57.07,47.906L57.043,48.018L57.032,48.072L57.021,48.128L57.01,48.183L57,48.239L56.991,48.295L56.982,48.351L56.974,48.408L56.967,48.464L56.96,48.521L56.955,48.577L56.949,48.634L56.945,48.691L56.941,48.748L56.938,48.806L56.935,48.863L56.934,48.92L56.933,48.978L56.932,49.037L56.932,203.381L56.933,203.44L56.934,203.498L56.935,203.555L56.938,203.612L56.941,203.669L56.945,203.727L56.949,203.783L56.955,203.84L56.96,203.897L56.967,203.954L56.974,204.01L56.982,204.066L56.991,204.123L57,204.179L57.01,204.235L57.021,204.29L57.032,204.346L57.043,204.4L57.07,204.511L57.098,204.621L57.129,204.729L57.163,204.837L57.199,204.944L57.237,205.05L57.279,205.155L57.322,205.258L57.369,205.361L57.417,205.463L57.468,205.563L57.522,205.662L57.578,205.76L57.637,205.858L57.666,205.904L57.697,205.952L57.728,205.999L57.76,206.045L57.792,206.092L57.825,206.137L57.859,206.183L57.893,206.228L57.928,206.273L57.963,206.317L57.999,206.361L58.035,206.405L58.072,206.448L58.109,206.49L58.147,206.533L58.186,206.575L58.225,206.616L58.265,206.657L58.305,206.697L58.346,206.737L58.387,206.776L58.429,206.815L58.47,206.853L58.513,206.891L58.556,206.928L58.599,206.964L58.642,207L58.686,207.036L58.731,207.07L58.775,207.104L58.821,207.138L58.866,207.171L58.912,207.203L58.958,207.235L59.005,207.266L59.05,207.296L59.146,207.356L59.242,207.413L59.34,207.468L59.438,207.52L59.538,207.569L59.639,207.616L59.741,207.661L59.844,207.703L59.948,207.742L60.053,207.779L60.159,207.813L60.266,207.844L60.373,207.873L60.483,207.9L60.536,207.912L60.591,207.923L60.645,207.934L60.7,207.944L60.755,207.954L60.811,207.962L60.866,207.97L60.921,207.978L60.977,207.984L61.033,207.99L61.089,207.996L61.145,208L61.201,208.004L61.257,208.007L61.313,208.01L61.37,208.012L61.426,208.013L61.484,208.013L192.932,208.013L192.991,208.013L193.047,208.012L193.104,208.01L193.16,208.007L193.216,208.004L193.272,208L193.328,207.996L193.384,207.99L193.44,207.984L193.495,207.978L193.551,207.97L193.606,207.962L193.661,207.954L193.716,207.944L193.771,207.934L193.826,207.923L193.881,207.912L193.933,207.9L194.043,207.873L194.151,207.844L194.257,207.813L194.363,207.779L194.468,207.742L194.572,207.703L194.675,207.661L194.777,207.616L194.878,207.569L194.978,207.52L195.077,207.468L195.174,207.413L195.27,207.356L195.366,207.296L195.412,207.266L195.459,207.235L195.505,207.203L195.551,207.171L195.596,207.138L195.641,207.104L195.686,207.07L195.73,207.036L195.774,207L195.818,206.964L195.861,206.928L195.904,206.891L195.946,206.853L195.988,206.815L196.03,206.776L196.071,206.737L196.111,206.697L196.152,206.657L196.191,206.616L196.231,206.575L196.269,206.533L196.307,206.49L196.345,206.448L196.382,206.405L196.418,206.361L196.454,206.317L196.489,206.273L196.524,206.228L196.558,206.183L196.591,206.137L196.624,206.092L196.657,206.045L196.689,205.999L196.72,205.952L196.75,205.904L196.78,205.858L196.839,205.76L196.895,205.662L196.948,205.563L196.999,205.463L197.048,205.361L197.094,205.258L197.138,205.155L197.179,205.05L197.218,204.944L197.254,204.837L197.288,204.729L197.319,204.621L197.347,204.511L197.373,204.4L197.385,204.346L197.396,204.29L197.407,204.235L197.417,204.179L197.426,204.123L197.434,204.066L197.442,204.01L197.45,203.954L197.456,203.897L197.462,203.84L197.467,203.783L197.472,203.727L197.476,203.669L197.479,203.612L197.481,203.555L197.483,203.498L197.484,203.44L197.484,203.381L197.484,49.037L197.484,48.978L197.483,48.92L197.481,48.863L197.479,48.806L197.476,48.748L197.472,48.691L197.467,48.634L197.462,48.577L197.456,48.521L197.45,48.464L197.442,48.408L197.434,48.351L197.426,48.295L197.417,48.239L197.407,48.183L197.396,48.128L197.385,48.072L197.373,48.018L197.347,47.907L197.319,47.797L197.288,47.688L197.254,47.581L197.218,47.474L197.179,47.368L197.138,47.263L197.094,47.159L197.048,47.057L196.999,46.955L196.948,46.855L196.895,46.756L196.839,46.658L196.78,46.56L196.75,46.514L196.72,46.466L196.689,46.419L196.657,46.373L196.624,46.326L196.591,46.28L196.558,46.235L196.524,46.19L196.489,46.145L196.454,46.101L196.418,46.057L196.382,46.013L196.345,45.97L196.307,45.927L196.269,45.885L196.231,45.843L196.191,45.802L196.152,45.761L196.111,45.721L196.071,45.681L196.03,45.641L195.988,45.603L195.946,45.564L195.904,45.527L195.861,45.49L195.818,45.453L195.774,45.417L195.73,45.382L195.686,45.347L195.641,45.313L195.596,45.28L195.551,45.247L195.505,45.214L195.459,45.183L195.412,45.152L195.366,45.122L195.27,45.062L195.174,45.005L195.077,44.95L194.978,44.898L194.878,44.849L194.777,44.802L194.675,44.757L194.572,44.715L194.468,44.676L194.363,44.639L194.257,44.605L194.151,44.573L194.043,44.544L193.933,44.518L193.881,44.506L193.826,44.495L193.771,44.484L193.716,44.474L193.661,44.464L193.606,44.455L193.551,44.447L193.495,44.44L193.44,44.433L193.384,44.427L193.328,44.422L193.272,44.417L193.216,44.414L193.16,44.41L193.103,44.408L193.047,44.406L192.991,44.405L192.933,44.405L61.484,44.405Z" style="fill:url(#_Linear4);"/>
    </g>
    <g transform="matrix(1.04348,0,0,1.03704,-5.56522,-4.63809)">
        <rect x="70.5" y="57.728" width="115" height="135" style="fill:rgb(50,50,50);"/>
        <clipPath id="_clip5">
            <rect x="70.5" y="57.728" width="115" height="135"/>
        </clipPath>
        <g clip-path="url(#_clip5)">
            <g transform="matrix(1.3776,0,0,0.962017,-51.889,-2.87872)">
                <path d="M172.32,63L88.842,63L99.277,78.035L161.885,78.035L172.32,63Z" style="fill:rgb(37,37,37);"/>
            </g>
            <g transform="matrix(-1.3776,-1.69756e-16,1.17086e-16,-0.962017,307.889,253.335)">
                <path d="M172.32,63L88.842,63L99.277,78.035L161.885,78.035L172.32,63Z" style="fill:rgb(64,64,64);"/>
            </g>
            <g transform="matrix(-1.86103,-2.29326e-16,2.44044e-16,-2.00515,392.458,419.113)">
                <rect x="111.206" y="112.902" width="61.794" height="67.327" style="fill:url(#_Radial6);"/>
            </g>
            <g>
                <g transform="matrix(0.968514,0,0,0.916422,3.76844,5.5428)">
                    <rect x="83.743" y="72.728" width="89.054" height="115.745" style="fill:rgb(27,27,27);"/>
                </g>
                <g transform="matrix(2.89263,0,0,3.92699,13.5069,10.1349)">
                    <path d="M52.833,17.031C52.833,17.031 43.998,16.785 39.581,16.785C35.164,16.785 26.329,17.031 26.329,17.031C26.329,17.031 26.163,25.896 26.163,29.989C26.163,33.855 26.329,41.586 26.329,41.586C26.329,41.586 35.164,41.832 39.581,41.832C43.998,41.832 52.833,41.586 52.833,41.586C52.833,41.586 52.999,33.855 52.999,29.989C52.999,25.896 52.833,17.031 52.833,17.031Z" style="fill:rgb(46,79,120);"/>
                </g>
                <g transform="matrix(1.39577,0,0,1.57547,-70.3434,-105.681)">
                    <rect x="111.206" y="112.902" width="61.794" height="67.327" style="fill:url(#_Radial7);"/>
                </g>
            </g>
        </g>
    </g>
    <defs>
        <linearGradient id="_Linear1" x1="0" y1="0" x2="1" y2="0" gradientUnits="userSpaceOnUse" gradientTransform="matrix(-8.04356e-14,-55.1287,18.3657,-2.41445e-13,128,234.848)"><stop offset="0" style="stop-color:rgb(235,235,235);stop-opacity:1"/><stop offset="1" style="stop-color:rgb(163,163,163);stop-opacity:1"/></linearGradient>
        <radialGradient id="_Radial3" cx="0" cy="0" r="1" gradientUnits="userSpaceOnUse" gradientTransform="matrix(-61.7938,-1.77986e-13,2.4403e-13,-67.3267,173,112.902)"><stop offset="0" style="stop-color:white;stop-opacity:0.14902"/><stop offset="1" style="stop-color:white;stop-opacity:0"/></radialGradient>
        <linearGradient id="_Linear4" x1="0" y1="0" x2="1" y2="0" gradientUnits="userSpaceOnUse" gradientTransform="matrix(-141.563,164.637,-161.786,-144.058,197.99,43.8902)"><stop offset="0" style="stop-color:rgb(64,64,64);stop-opacity:1"/><stop offset="1" style="stop-color:rgb(179,179,179);stop-opacity:1"/></linearGradient>
        <radialGradient id="_Radial6" cx="0" cy="0" r="1" gradientUnits="userSpaceOnUse" gradientTransform="matrix(-61.7938,-1.77986e-13,2.4403e-13,-67.3267,173,112.902)"><stop offset="0" style="stop-color:white;stop-opacity:0.14902"/><stop offset="1" style="stop-color:white;stop-opacity:0"/></radialGradient>
        <radialGradient id="_Radial7" cx="0" cy="0" r="1" gradientUnits="userSpaceOnUse" gradientTransform="matrix(-61.7938,-1.77986e-13,2.4403e-13,-67.3267,173,112.902)"><stop offset="0" style="stop-color:white;stop-opacity:0.14902"/><stop offset="1" style="stop-color:white;stop-opacity:0"/></radialGradient>
    </defs>
</svg>
